<?xml version="1.0" encoding="UTF-8"?>
<svg id="Ebene_1" data-name="Ebene 1" xmlns="http://www.w3.org/2000/svg" viewBox="0 0 840.14 270.99" role="img" aria-label="Mannhold Haustechnik – Sanitär, Heizung, Wartung">
  <defs>
    <style>
      .cls-1 {
        fill: #f39323;
      }

      .cls-2 {
        fill: #fff;
        font-family: BebasNeueBold, 'Bebas Neue', Arial, sans-serif;
        font-size: 38.53px;
      }

      .cls-3 {
        fill: #626161;
      }

      .cls-4 {
        fill: #616160;
      }

      .cls-5 {
        letter-spacing: -.02em;
      }

      .cls-6 {
        letter-spacing: -.04em;
      }

      .cls-7 {
        fill: #3089ca;
      }
    </style>
  </defs>
  <g>
    <g>
      <g>
        <path class="cls-7" d="M353.29,146.11h-13.54v-58.03h-.19l-12.96,58.03h-14.22l-12.67-58.03h-.19v58.03h-13.54v-69.45h21.18l12.57,54.75h.19l12.38-54.75h20.99v69.45Z"/>
        <path class="cls-7" d="M377.08,146.11h-15.28l24.76-69.45h16.73l24.47,69.45h-15.77l-4.45-14.32h-25.63l-4.84,14.32ZM385.79,119.8h17.7l-8.61-27.47h-.19l-8.9,27.47Z"/>
        <path class="cls-7" d="M479.42,76.66h13.54v69.45h-14.51l-28.34-49.52h-.19v49.52h-13.54v-69.45h15.28l27.57,48.36h.19v-48.36Z"/>
        <path class="cls-7" d="M549.25,76.66h13.54v69.45h-14.51l-28.34-49.52h-.19v49.52h-13.54v-69.45h15.28l27.57,48.36h.19v-48.36Z"/>
        <path class="cls-7" d="M590.74,114.96v31.15h-14.51v-69.45h14.51v26.31h27.09v-26.31h14.51v69.45h-14.51v-31.15h-27.09Z"/>
        <path class="cls-7" d="M676.82,74.82c9.19,0,33.37,3.97,33.37,36.56s-24.18,36.56-33.37,36.56-33.37-3.97-33.37-36.56,24.18-36.56,33.37-36.56ZM676.82,135.66c7.84,0,18.86-4.84,18.86-24.28s-11.03-24.28-18.86-24.28-18.86,4.84-18.86,24.28,11.03,24.28,18.86,24.28Z"/>
        <path class="cls-7" d="M736.31,133.53h34.53v12.57h-49.04v-69.45h14.51v56.87Z"/>
        <path class="cls-7" d="M780.9,76.66h30.66c23.41,0,28.24,19.93,28.24,33.08,0,14.9-5.9,36.37-28.82,36.37h-30.08v-69.45ZM795.12,134.11h14.12c11.8,0,15.77-11.9,15.77-23.31,0-20.51-9.77-22.15-15.96-22.15h-13.93v45.46Z"/>
      </g>
      <g>
        <path class="cls-1" d="M286.31,194.44v-36.7h7.41v14.44h14.52v-14.44h7.41v36.7h-7.41v-16.05h-14.52v16.05h-7.41Z"/>
        <path class="cls-1" d="M374.86,194.44h-8.06l-3.2-8.34h-14.67l-3.03,8.34h-7.86l14.29-36.7h7.84l14.69,36.7ZM361.21,179.92l-5.06-13.62-4.96,13.62h10.01Z"/>
        <path class="cls-1" d="M397.19,157.74h7.41v19.88c0,3.15.09,5.2.27,6.13.32,1.5,1.07,2.71,2.27,3.62,1.19.91,2.82,1.36,4.89,1.36s3.69-.43,4.76-1.29c1.07-.86,1.71-1.91,1.93-3.17.22-1.25.32-3.33.32-6.23v-20.3h7.41v19.28c0,4.41-.2,7.52-.6,9.34-.4,1.82-1.14,3.35-2.22,4.61s-2.52,2.25-4.32,2.99c-1.8.74-4.16,1.11-7.06,1.11-3.5,0-6.16-.4-7.97-1.21-1.81-.81-3.24-1.86-4.29-3.15-1.05-1.29-1.74-2.65-2.08-4.07-.48-2.1-.73-5.21-.73-9.31v-19.58Z"/>
        <path class="cls-1" d="M450.85,182.5l7.21-.7c.43,2.42,1.31,4.2,2.64,5.33,1.33,1.14,3.12,1.7,5.37,1.7,2.39,0,4.18-.5,5.39-1.51,1.21-1.01,1.82-2.19,1.82-3.54,0-.87-.25-1.61-.76-2.22s-1.4-1.14-2.67-1.59c-.87-.3-2.85-.83-5.93-1.6-3.97-.98-6.76-2.19-8.36-3.63-2.25-2.02-3.38-4.48-3.38-7.38,0-1.87.53-3.62,1.59-5.25,1.06-1.63,2.59-2.87,4.58-3.72s4.4-1.28,7.22-1.28c4.61,0,8.07,1.01,10.4,3.03,2.33,2.02,3.55,4.71,3.67,8.09l-7.41.32c-.32-1.88-1-3.24-2.04-4.07s-2.61-1.24-4.69-1.24-3.84.44-5.06,1.33c-.78.57-1.18,1.33-1.18,2.28,0,.87.37,1.61,1.1,2.23.93.78,3.2,1.6,6.81,2.45,3.61.85,6.27,1.73,8,2.64,1.73.91,3.08,2.15,4.06,3.73s1.46,3.53,1.46,5.85c0,2.1-.58,4.07-1.75,5.91-1.17,1.84-2.82,3.2-4.96,4.09-2.14.89-4.8,1.34-7.99,1.34-4.64,0-8.2-1.07-10.69-3.21-2.49-2.15-3.97-5.27-4.46-9.38Z"/>
        <path class="cls-1" d="M513.64,194.44v-30.49h-10.89v-6.21h29.16v6.21h-10.86v30.49h-7.41Z"/>
        <path class="cls-1" d="M555.15,194.44v-36.7h27.21v6.21h-19.8v8.14h18.43v6.18h-18.43v9.99h20.5v6.18h-27.91Z"/>
        <path class="cls-1" d="M631.29,180.95l7.18,2.28c-1.1,4.01-2.93,6.98-5.49,8.93-2.56,1.94-5.81,2.91-9.75,2.91-4.88,0-8.88-1.66-12.02-4.99-3.14-3.33-4.71-7.88-4.71-13.66,0-6.11,1.58-10.85,4.73-14.23,3.15-3.38,7.3-5.07,12.44-5.07,4.49,0,8.14,1.33,10.94,3.98,1.67,1.57,2.92,3.82,3.75,6.76l-7.34,1.75c-.43-1.9-1.34-3.41-2.71-4.51-1.38-1.1-3.05-1.65-5.02-1.65-2.72,0-4.93.98-6.62,2.93-1.7,1.95-2.54,5.11-2.54,9.49,0,4.64.83,7.95,2.5,9.91,1.67,1.97,3.84,2.95,6.51,2.95,1.97,0,3.66-.63,5.08-1.88,1.42-1.25,2.44-3.22,3.05-5.91Z"/>
        <path class="cls-1" d="M663.31,194.44v-36.7h7.41v14.44h14.52v-14.44h7.41v36.7h-7.41v-16.05h-14.52v16.05h-7.41Z"/>
        <path class="cls-1" d="M718.84,194.44v-36.7h7.21l15.02,24.51v-24.51h6.88v36.7h-7.43l-14.79-23.93v23.93h-6.89Z"/>
        <path class="cls-1" d="M774.02,194.44v-36.7h7.41v36.7h-7.41Z"/>
        <path class="cls-1" d="M807.05,194.44v-36.7h7.41v16.3l14.97-16.3h9.96l-13.82,14.29,14.57,22.4h-9.59l-10.09-17.22-6.01,6.13v11.09h-7.41Z"/>
      </g>
    </g>
    <g>
      <g>
        <g>
          <path class="cls-7" d="M230.19,181.82c-.53,6.86.98,13.69.59,20.55-.65,16.05-7.51,32.08-19.39,43.02-18.34,19.03-46.14,26.33-71.92,25.55,19.96-5.11,41.93-12.49,53.23-31.12,8.16-12.51,8.25-27.84,7.53-42.22l-.35-.26-.4-.3c.12-.11.25-.21.37-.31,8.72-7.28,17.1-14.97,24.96-23.16,12.92-13,23.47-28.34,30.56-45.23,3.05-6.85,5-14.12,8.1-20.93-1.69,26.96-13.86,52.71-31.67,72.74l-1.61,1.69Z"/>
          <path class="cls-1" d="M179.53,192.98c-.27,1.38-.73,2.76-1.43,4.14-2.26,4.73-6.81,9.41-12.63,13.9,0,.02-.02.02-.04.02-.7.41-1.4.81-2.1,1.22-.21.11-.41.25-.64.36v-6.4c-.93-.59-1.86-1.18-2.78-1.77-1.04.59-2.1,1.16-3.14,1.72.04,2.01,0,4.05.04,6.09.02,1.09.05,2.24.16,3.33-.54.45-1.08.84-1.67,1.25-2.49,1.68-5.29,2.94-7.85,4.55v-11c2.76-1.56,5.5-3.22,8.3-4.68,0-1.22.04-2.4.04-3.62-1-.5-1.95-1.04-2.92-1.56-1.81,1.06-3.62,2.06-5.41,3.12v-7.38l-3.08-1.54-3.1,1.54v7.38c-1.79-1.06-3.6-2.06-5.41-3.12-.97.52-1.92,1.06-2.9,1.56.02,1.22.02,2.4.02,3.62,2.79,1.45,5.55,3.12,8.3,4.68v11c-3.15-1.99-6.65-3.42-9.51-5.8.29-3.14.14-6.27.2-9.42-1.04-.56-2.1-1.13-3.14-1.72-.91.59-1.81,1.18-2.74,1.77v6.4c-2.15-1.22-4.25-2.42-6.4-3.67-.97.54-1.95,1.07-2.94,1.61.02,1.16.02,2.35.02,3.51,1.42.79,2.83,1.58,4.28,2.31.68.48,1.38.97,2.02,1.45-1.83.99-3.67,2.04-5.48,3.05,0,1.2.04,2.38.04,3.55.99.5,1.97,1.02,2.94,1.52,2.74-1.65,5.54-3.14,8.26-4.87l9.33,5.36.25.14-.45.25-5.09,2.94s-.02.02-.04.02c-1.49.7-2.97,1.36-4.43,2.02-2.54-1.54-5.05-3.15-7.74-4.44-1.15,0-2.1.99-3.14,1.43.05,1.2.11,2.38.14,3.55,1.36.73,2.71,1.49,4.08,2.26l-16.39,6.58c-5.34,1.99-8.87,3.17-9.35,3.33-.04.02-.05.02-.05.02-12.49-15.93-14.85-37.53-13.03-57.1,2.83,12,6,24.99,15.41,33.68,1.16.23,3.51.72,4.68.95-4.14-6.92-7.35-15.21-5.25-23.34,2.15-8.26,8.9-13.94,14.85-19.55,2.94-4.91,5.5-10.46,4.46-16.36-.75-8.65-7.85-14.48-13.97-19.74,8.31,1.04,17.47,3.01,22.97,9.93,4.41,4.69,6.11,11,7.45,17.11,1.02-9.3-4.21-17.13-9.12-24.44l-.73-.02c-4.75-7.01-10.95-13.37-12.4-22.07-.81-14.85,9.33-27.36,20.5-35.9-1.83,5.21-4.5,10.36-4.3,16.04-.29,5.89,2.81,11.11,5.52,16.11,6.77,8.74,15.41,15.73,23.02,23.69,7.79,7.49,10.77,18.56,10.02,29.11-1.11,5.03-2.36,10.07-3.08,15.19,2.13-2.92,4.17-5.89,6.22-8.87,2.1-7.9,1-15.95-.84-23.74,4.77,4.26,9.26,9.26,10.98,15.59,1.83,7.29.54,14.82.21,22.2Z"/>
          <path class="cls-1" d="M176.91,248.7c-12.11,10.39-28.78,13.58-44.34,12.93-6.26-.72-12.9-.85-18.48-4.14-5.46-1.55-10.62,1.23-15.89,2.29-8.08,1.78-16.34,2.75-24.62,2.51-8.67-.35-17.97-2.06-24.91-7.47-1.22-.94-2.35-2-3.4-3.17-5.5-6-5.93-14.82-4.8-22.46,1.43-8.47,4.37-16.48,8.21-24.08,4.13-8.24,9.28-16.01,14.66-23.41,8.6-11.36,18-22.22,28.89-31.43-15.38,17.88-31.37,36.34-39.38,58.89-4.01,10.8-5.07,24.36,3.08,33.57,4.33,5.59,11.45,7.06,17.7,9.39,11.27.62,22.32-1.13,33.14-4.07,3.77-1.78,7.67-3.17,11.56-4.64.44.27.91.53,1.38.81.07-.06.16-.11.25-.18l.06-.02c2.01-1.22,4.01-2.38,6.05-3.53v.02c0,2.15,0,4.3-.03,6.45,1.02.58,2.04,1.13,3.06,1.7.95-.59,1.9-1.16,2.84-1.72l-.29-9.46c2.11-1.03,5.46-2.64,9.62-4.74v10.16c-2.89,1.25-5.5,3.12-8.3,4.59-.02,1.11-.09,2.2-.14,3.33.98.61,1.95,1.2,2.92,1.79,1.86-1.06,3.71-2.1,5.52-3.17v7.19l3.1,1.9,3.08-1.9v-7.19c1.84,1.08,3.65,2.11,5.52,3.17.96-.59,1.93-1.18,2.92-1.79-.06-1.13-.11-2.22-.11-3.33-2.84-1.47-5.41-3.34-8.33-4.59v-11.2l2.77,1.61.38.2c1.58.88,3.13,1.79,4.7,2.72.09.06.2.11.29.16l1.49.88-.15,4.47-.12,5.18c.93.56,1.88,1.13,2.81,1.72,1.02-.57,2.04-1.13,3.07-1.7v-6.46c.73.41,1.46.84,2.18,1.27,1.29.74,2.57,1.49,3.84,2.26l.05.02c.09.07.18.12.29.18.99-.59,2.01-1.18,3.01-1.78v-.68c0-.87-.03-1.79-.07-2.66l-5.82-3.37-.09-.05c-.12-.09-.3-.2-.44-.29,1.81-1.04,3.62-2.06,5.46-3.05.02-1.16.06-2.34.12-3.54-1.04-.45-1.97-1.43-3.14-1.43-2.8,1.36-5.46,3.08-8.15,4.69l-2.63-1.5v.04l-1.97-1.13-3.55-2.06c.95-.5,1.92-1.02,2.9-1.54.79-.44,1.6-.86,2.43-1.32,1.48-.81,2.98-1.61,4.51-2.45,2.16,1.32,4.39,2.54,6.57,3.85.97-.5,1.96-1.02,2.94-1.52,0-1.16.03-2.34.03-3.54-1.22-.68-2.45-1.38-3.69-2.06,1.49-.86,2.99-1.72,4.5-2.6,2.13-1.25,4.24-2.52,6.32-3.8.12-.07.24-.14.35-.23,1.75-1.17,3.49-2.37,5.23-3.57,4.01-2.79,7.97-5.62,12.1-8.24.96,17.78-5.33,36.52-19.03,48.32Z"/>
        </g>
        <path class="cls-7" d="M257.82,106.44c-.51,1.93-1.11,3.84-1.77,5.72-5.52,15.7-15.03,29.7-25.69,42.48-13.83,16.6-29.75,31.46-47.26,44.12,4.55-11.59,5.28-25.22-.63-36.17-3.55-6.57-9.16-11.73-14.4-17.05-8.19-8.31-15.69-17.3-22.39-26.86-2.16-3.08-4.27-6.29-5.25-9.92-.94-3.48-.8-7.16-.41-10.75.76-7.05,2.41-13.96,4.5-20.73,1.05-3.4,2.2-6.76,3.41-10.1,1.08-3.01,1.93-7.12,3.72-9.72,4.15,18.43,10.99,35.51,22.32,50.77,4.17,5.61,8.82,10.88,13.89,15.69,10.54,10.01,21.15,20.09,29.6,31.92,13.72-13.8,23.42-31.56,27.59-50.57,1.76-8.02,2.42-16.96-1.91-23.94-4.17-6.72-12.88-10.28-20.56-8.39-1.4.34-2.78.85-4.22.85-2.69,0-5.26-1.98-5.94-4.58,2.76.43,6.43.34,7.33-2.31.62-1.83-.72-3.87-2.47-4.69s-3.77-.75-5.71-.65c1.1-3.76,6.3-4.64,9.92-3.13s6.39,4.53,9.85,6.37c4.5,2.39,9.86,2.62,14.51,4.71,7.34,3.3,12.04,11.01,13.32,18.96.96,5.98.23,12.08-1.33,17.97Z"/>
      </g>
      <path class="cls-3" d="M78.55,45.42l-.05.1-.19.08c.09-.05.16-.11.24-.18Z"/>
      <path class="cls-3" d="M241.25,103c-.93,5.31-2.41,10.36-4.23,15.08L150.77,18.41l-65.49,56.68-13.05,11.3-23.56,20.38-13.06,11.31-.56.49h13.62v77.88c-5.59,9.65-10.28,20.34-12.26,32.07v.08c-1.63,10.97.39,19.91,5.79,25.79,1.5,1.69,3.17,3.18,5.03,4.51h-11.62v-127.29H0l15.09-13.05,20.53-17.78,9.1-7.87,27.51-23.8v-31.97h13.05v20.66l56.94-49.27,9.87-8.54,8.56,9.87,48.71,56.28h0c-.21.12-.4.26-.58.41l-.16.13-.16.16c-.22.23-.56.6-.84,1.16l-.07.15-.07.16c-.6,1.5-.3,3.21.76,4.41,1.55,1.79,3.35,3.2,5.32,4.19,1.81.9,3.61,1.36,5.36,1.36.3,0,.6-.02.9-.05l21.43,24.77Z"/>
    </g>
  </g>
  <rect class="cls-4" x="285.97" y="215.97" width="553.83" height="41.49"/>
  <path class="cls-1" d="M367.66,238.63c-.04,2.19-1.85,3.94-4.04,3.9-2.19-.04-3.93-1.85-3.89-4.04.04-2.19,1.85-3.94,4.05-3.9,2.19.05,3.93,1.86,3.89,4.05Z"/>
  <path class="cls-1" d="M502.93,238.63c-.04,2.19-1.85,3.94-4.04,3.9-2.19-.04-3.93-1.85-3.89-4.04.04-2.19,1.85-3.94,4.05-3.9,2.19.05,3.93,1.86,3.89,4.05Z"/>
  <path class="cls-1" d="M639.94,238.63c-.04,2.19-1.85,3.94-4.04,3.9-2.19-.04-3.93-1.85-3.89-4.04.04-2.19,1.85-3.94,4.05-3.9,2.19.05,3.93,1.86,3.89,4.05Z"/>
  <text class="cls-2" transform="translate(517.96 251.48)"><tspan x="0" y="0">Heizung</tspan></text>
  <text class="cls-2" transform="translate(654.97 251.48)"><tspan class="cls-5" x="0" y="0">W</tspan><tspan x="21.11" y="0">artung</tspan></text>
  <text class="cls-2" transform="translate(382.69 251.48)"><tspan x="0" y="0">Sani</tspan><tspan class="cls-6" x="53.86" y="0">t</tspan><tspan x="66.11" y="0">är</tspan></text>
</svg>
